<svg width="198" height="186" viewBox="0 0 198 186" fill="none" xmlns="http://www.w3.org/2000/svg">
<path d="M37.8038 69.7127C37.8127 69.7397 37.8127 69.7666 37.8217 69.7936C37.8307 69.8205 37.8577 69.8295 37.8667 69.8475C41.5053 78.67 48.5941 86.5673 58.0186 91.6795C63.4001 94.5994 68.0272 95.8214 72.2677 95.8214C79.4822 95.8214 85.6006 92.2814 92.4737 87.6007L103.731 93.7192C103.902 93.809 104.09 93.8629 104.279 93.8629C104.683 93.8629 105.079 93.6473 105.285 93.261C105.591 92.7039 105.384 92.0031 104.827 91.6977L93.5698 85.5792C93.8843 72.3632 92.7702 62.3446 78.2424 54.4487C63.9663 46.6952 47.2453 46.8479 35.6464 54.826C35.4757 54.9428 35.3679 55.0956 35.287 55.2753C35.269 55.3112 35.26 55.3471 35.2421 55.3831C35.2061 55.4729 35.1792 55.5628 35.1702 55.6616C35.1702 55.6885 35.1522 55.7155 35.1522 55.7424C35.0175 60.4772 35.9698 65.212 37.8025 69.7131L37.8038 69.7127ZM48.2255 51.8967L50.3458 62.085L38.5763 55.6882C41.5322 53.9363 44.7844 52.6605 48.2255 51.8969L48.2255 51.8967ZM76.5178 56.4067L81.1806 78.8407L68.4138 71.9048L64.2361 51.8067C68.3958 52.6153 72.5466 54.0708 76.5176 56.1551C76.5176 56.236 76.4996 56.3258 76.5176 56.4067L76.5178 56.4067ZM58.7287 89.1725C58.6478 89.2085 58.585 89.2624 58.5131 89.3073C54.6049 87.1061 51.119 84.4198 48.181 81.3652L67.3177 73.9261L80.0845 80.8619L58.7287 89.1725ZM46.5279 79.5413C43.9942 76.6035 41.9369 73.387 40.4276 70.0089L51.9007 65.5527L64.6765 72.4886L46.5279 79.5413ZM37.4716 57.7182L49.2502 64.115L39.538 67.8883C38.3071 64.5821 37.6063 61.159 37.4715 57.718L37.4716 57.7182ZM61.1639 90.691L82.7264 82.3087L90.1925 86.3695C80.6601 92.7755 72.9783 96.3062 61.1642 90.691H61.1639ZM91.2985 84.3391L83.8325 80.2782L79.1246 57.6195C90.2743 64.4747 91.4961 72.8481 91.2985 84.3386V84.3391ZM61.8033 51.4123L65.7655 70.4683L52.9897 63.5324L50.4832 51.4843C54.1489 50.9183 57.9582 50.8913 61.8036 51.4124L61.8033 51.4123Z" fill="#BEBFC4"/>
<path d="M147.765 81.0864H147.774C147.791 81.0954 147.8 81.1044 147.818 81.1134C147.998 81.2212 148.196 81.2661 148.393 81.2661C148.546 81.2661 148.708 81.2302 148.861 81.1673C151.843 79.8466 154.512 77.861 156.767 75.3904C156.785 75.3724 156.803 75.3724 156.812 75.3544C156.83 75.3365 156.839 75.3095 156.857 75.2915C161.259 70.431 164.071 63.7106 164.466 56.3704C165.086 45.05 159.705 40.7554 151.951 36.2005L152.409 27.7372C152.445 27.0993 151.96 26.5602 151.322 26.5243C150.631 26.4794 150.145 26.9735 150.109 27.6114L149.651 36.0748C141.449 39.7495 135.627 43.4329 135.007 54.7622C134.387 65.8848 139.391 76.2079 147.765 81.0858L147.765 81.0864ZM143.102 73.9707L147.756 70.4489L147.342 78.0049C145.77 76.8729 144.35 75.5163 143.102 73.9709L143.102 73.9707ZM138.708 65.8848L148.412 58.5446L147.926 67.4302L141.709 72.1381C140.469 70.2423 139.454 68.14 138.708 65.8848H138.708ZM137.298 55.5617L149.058 46.6582L148.573 55.5348L138.079 63.4769C137.495 60.9522 137.208 58.293 137.298 55.5617H137.298ZM160.433 64.6989L150.874 55.6606L151.359 46.775L162.087 56.9093C161.88 59.6405 161.305 62.2549 160.434 64.6987L160.433 64.6989ZM155.887 72.9106L150.218 67.556L150.703 58.6704L159.544 67.0258C158.565 69.1821 157.334 71.1677 155.888 72.9106H155.887ZM149.643 78.1305L150.057 70.5655L154.306 74.5816C152.896 75.9831 151.332 77.1691 149.643 78.1305H149.643ZM162.176 53.8379L151.521 43.7664L151.79 38.789C157.882 42.4637 161.907 46.0034 162.176 53.8379H162.176ZM149.499 38.6721L149.23 43.6496L137.541 52.4993C138.673 44.7188 143.058 41.646 149.499 38.6724L149.499 38.6721Z" fill="#BEBFC4"/>
<path d="M106.167 139.529C106.158 139.476 106.158 139.404 106.14 139.359C106.131 139.341 106.14 139.332 106.131 139.314C106.122 139.296 106.113 139.287 106.113 139.278C106.086 139.233 106.059 139.188 106.032 139.134C105.996 139.08 105.969 139.017 105.924 138.972C105.897 138.945 105.879 138.928 105.861 138.901C105.852 138.892 105.852 138.874 105.843 138.874C101.243 134.579 95.691 131.354 89.5907 129.215C89.5547 129.197 89.5278 129.171 89.4919 129.162C89.4469 129.144 89.393 129.144 89.3391 129.135C77.3359 124.993 63.2226 125.11 49.8159 129.979C31.2722 136.726 20.5438 150.257 17.885 170.183L1.47959 176.14C0.886626 176.355 0.572172 177.02 0.787797 177.613C0.958501 178.08 1.39872 178.368 1.86592 178.368C2.00069 178.368 2.12647 178.341 2.26125 178.296L18.6577 172.33C28.5854 181.404 39.4387 185.986 51.0923 185.986C56.8603 185.986 62.817 184.872 68.9532 182.644C89.2847 175.25 103.892 158.448 106.176 139.844C106.176 139.826 106.167 139.817 106.176 139.799V139.709C106.194 139.655 106.176 139.592 106.167 139.529L106.167 139.529ZM98.4853 155.665L85.2872 148.119L103.597 141.461C102.753 146.403 101.019 151.2 98.4851 155.666L98.4853 155.665ZM102.807 139.305L84.4967 145.962L89.7616 131.704C94.5863 133.501 98.9885 136.061 102.807 139.305H102.807ZM87.5872 130.958L81.6665 146.987L62.3771 154.003L71.8018 128.469C77.2913 128.523 82.619 129.367 87.5874 130.957L87.5872 130.958ZM68.4595 179.879L41.0389 164.202L60.3283 157.185L84.9015 171.236C80.1847 174.929 74.7672 177.993 68.8284 180.221C68.7386 180.095 68.6218 179.969 68.46 179.879L68.4595 179.879ZM51.2005 132.423C51.2634 132.262 51.2724 132.091 51.2544 131.92C57.2471 129.818 63.3653 128.686 69.34 128.488L59.5381 155.028L40.2487 162.045L51.2005 132.423ZM48.5592 132.944L37.4366 163.07L20.3483 169.287C23.0347 151.444 32.2975 139.523 48.5601 132.945L48.5592 132.944ZM21.1202 171.451L38.2175 165.243L66.105 181.19C49.421 186.59 34.6594 183.409 21.1193 171.451H21.1202ZM86.7967 169.681C86.7967 169.672 86.7967 169.672 86.7877 169.672L63.1598 156.16L82.4582 149.143L97.2914 157.633C94.5063 162.044 90.9663 166.114 86.7976 169.681L86.7967 169.681Z" fill="#BEBFC4"/>
<path d="M96.633 56.7038C96.8126 56.7038 96.9923 56.6589 97.163 56.5691C110.649 49.5253 122.958 40.4511 133.728 29.6246C134.178 29.1753 134.178 28.4476 133.719 27.9984C133.27 27.5492 132.543 27.5492 132.093 28.0074C121.492 38.6718 109.372 47.5933 96.0937 54.5287C95.5277 54.8252 95.3121 55.517 95.6085 56.083C95.8152 56.4783 96.2195 56.7029 96.6327 56.7029L96.633 56.7038Z" fill="#BEBFC4"/>
<path d="M137.737 24.8809C138.051 24.8809 138.366 24.7552 138.59 24.5036C139.902 23.0571 141.187 21.5748 142.436 20.0743C142.84 19.5891 142.777 18.8614 142.292 18.4571C141.807 18.0528 141.079 18.1157 140.675 18.6008C139.444 20.0832 138.177 21.5297 136.883 22.9672C136.461 23.4343 136.497 24.1621 136.964 24.5933C137.18 24.782 137.458 24.8808 137.737 24.8808L137.737 24.8809Z" fill="#BEBFC4"/>
<path d="M145.94 14.9614C146.291 14.9614 146.632 14.8087 146.857 14.5032C147.827 13.2185 148.779 11.9157 149.705 10.604C150.073 10.0829 149.947 9.37317 149.435 9.00482C148.923 8.64545 148.204 8.76224 147.836 9.28333C146.92 10.5771 145.985 11.8619 145.024 13.1197C144.637 13.6229 144.745 14.3506 145.248 14.7279C145.455 14.8896 145.698 14.9615 145.94 14.9615L145.94 14.9614Z" fill="#BEBFC4"/>
<path d="M151.305 6.25541C151.503 6.38119 151.718 6.44408 151.934 6.44408C152.311 6.44408 152.68 6.2644 152.895 5.923C153.632 4.79096 154.36 3.64995 155.06 2.49094C155.393 1.95186 155.222 1.2421 154.683 0.909685C154.144 0.577266 153.434 0.747966 153.102 1.28702C152.401 2.42803 151.691 3.5511 150.964 4.66526C150.622 5.20434 150.766 5.91409 151.305 6.25551L151.305 6.25541Z" fill="#BEBFC4"/>
<path d="M193.125 27.5305C192.478 27.3868 191.894 27.7911 191.759 28.411C182.802 70.1353 156.981 107.402 120.917 130.662C120.387 131.004 120.225 131.722 120.576 132.252C120.8 132.594 121.169 132.782 121.546 132.782C121.762 132.782 121.977 132.729 122.166 132.603C158.724 109.009 184.912 71.2134 194.004 28.8957C194.139 28.2758 193.744 27.6649 193.124 27.5301L193.125 27.5305Z" fill="#BEBFC4"/>
<path d="M195.184 15.3222C194.573 15.2414 193.971 15.6726 193.89 16.3015C193.746 17.3078 193.602 18.305 193.45 19.3113C193.351 19.9402 193.782 20.5242 194.411 20.623C194.474 20.632 194.528 20.641 194.591 20.641C195.148 20.641 195.633 20.2367 195.723 19.6707C195.875 18.6554 196.028 17.6402 196.172 16.625C196.253 15.9871 195.813 15.4032 195.184 15.3223V15.3222Z" fill="#BEBFC4"/>
<path d="M196.056 6.8214C195.436 6.77648 194.87 7.23468 194.816 7.87257C194.744 8.77099 194.663 9.66944 194.573 10.5679C194.51 11.1968 194.968 11.7629 195.597 11.8258C195.642 11.8258 195.678 11.8347 195.714 11.8347C196.298 11.8347 196.801 11.3945 196.855 10.8015C196.945 9.89412 197.026 8.97771 197.107 8.06132C197.152 7.42344 196.684 6.87539 196.056 6.82148V6.8214Z" fill="#BEBFC4"/>
<path d="M196.362 1.71094H195.212L195.158 2.53751C195.113 3.16642 195.589 3.72344 196.218 3.76838H196.308C196.901 3.76838 197.413 3.31017 197.449 2.69925L197.503 1.85471L196.362 1.71094Z" fill="#BEBFC4"/>
<path d="M165.302 38.6994C165.482 38.8072 165.68 38.8521 165.868 38.8521C166.264 38.8521 166.659 38.6455 166.866 38.2681C170.702 31.5478 173.972 24.4143 176.578 17.047C176.794 16.445 176.47 15.7892 175.877 15.5825C175.275 15.3759 174.619 15.6813 174.404 16.2833C171.843 23.5156 168.636 30.5325 164.862 37.127C164.557 37.6841 164.746 38.3849 165.303 38.6993L165.302 38.6994Z" fill="#BEBFC4"/>
<path d="M176.836 12.6977C176.953 12.7336 177.061 12.7516 177.169 12.7516C177.663 12.7516 178.112 12.4371 178.265 11.943C178.606 10.8289 178.938 9.71486 179.253 8.59189C179.424 7.98096 179.064 7.34306 178.453 7.17236C177.842 7.00165 177.213 7.36103 177.043 7.97197C176.737 9.07705 176.414 10.1731 176.072 11.2692C175.884 11.8712 176.225 12.5181 176.836 12.6978L176.836 12.6977Z" fill="#BEBFC4"/>
<path d="M179.022 5.01606C179.112 5.03403 179.201 5.052 179.291 5.052C179.812 5.052 180.28 4.70162 180.405 4.17154C180.567 3.47075 180.738 2.77896 180.89 2.07817C181.025 1.45825 180.639 0.847305 180.019 0.703555C179.372 0.568789 178.788 0.955129 178.644 1.57505C178.492 2.26684 178.33 2.94966 178.168 3.63247C178.024 4.24339 178.402 4.86333 179.022 5.01605V5.01606Z" fill="#BEBFC4"/>
</svg>
